G75*
G70*
%OFA0B0*%
%FSLAX24Y24*%
%IPPOS*%
%LPD*%
%AMOC8*
5,1,8,0,0,1.08239X$1,22.5*
%
%ADD10C,0.0515*%
%ADD11C,0.0660*%
%ADD12C,0.0594*%
%ADD13R,0.0760X0.0760*%
%ADD14C,0.0760*%
%ADD15C,0.2000*%
%ADD16C,0.0860*%
%ADD17C,0.1000*%
%ADD18C,0.0860*%
%ADD19C,0.0560*%
%ADD20R,0.0768X0.0768*%
%ADD21C,0.0650*%
%ADD22C,0.1000*%
%ADD23C,0.0520*%
%ADD24C,0.0700*%
%ADD25C,0.0400*%
%ADD26C,0.0591*%
%ADD27C,0.0450*%
%ADD28C,0.0160*%
%ADD29C,0.0320*%
%ADD30C,0.1500*%
D10*
X013721Y003836D02*
X013721Y004351D01*
X013721Y006351D02*
X013721Y006866D01*
X022206Y009601D02*
X022721Y009601D01*
X022721Y010601D02*
X022206Y010601D01*
X022206Y011601D02*
X022721Y011601D01*
X022721Y012601D02*
X022206Y012601D01*
X022206Y013601D02*
X022721Y013601D01*
X022721Y014601D02*
X022206Y014601D01*
X022206Y015601D02*
X022721Y015601D01*
X022721Y016601D02*
X022206Y016601D01*
X022206Y017601D02*
X022721Y017601D01*
X022721Y018601D02*
X022206Y018601D01*
X022206Y019601D02*
X022721Y019601D01*
X022721Y020601D02*
X022206Y020601D01*
X022206Y021601D02*
X022721Y021601D01*
X022721Y022601D02*
X022206Y022601D01*
X022206Y023601D02*
X022721Y023601D01*
X022721Y024601D02*
X022206Y024601D01*
X022206Y025601D02*
X022721Y025601D01*
X022721Y026601D02*
X022206Y026601D01*
X022206Y027601D02*
X022721Y027601D01*
X022721Y028601D02*
X022206Y028601D01*
X023721Y028601D02*
X024236Y028601D01*
X024236Y027601D02*
X023721Y027601D01*
X023721Y026601D02*
X024236Y026601D01*
X024236Y025601D02*
X023721Y025601D01*
X023721Y024601D02*
X024236Y024601D01*
X024236Y023601D02*
X023721Y023601D01*
X023721Y022601D02*
X024236Y022601D01*
X024236Y021601D02*
X023721Y021601D01*
X023721Y020601D02*
X024236Y020601D01*
X024236Y019601D02*
X023721Y019601D01*
X023721Y018601D02*
X024236Y018601D01*
X024236Y017601D02*
X023721Y017601D01*
X023721Y016601D02*
X024236Y016601D01*
X024236Y015601D02*
X023721Y015601D01*
X023721Y014601D02*
X024236Y014601D01*
X024236Y013601D02*
X023721Y013601D01*
X023721Y012601D02*
X024236Y012601D01*
X024236Y011601D02*
X023721Y011601D01*
X023721Y010601D02*
X024236Y010601D01*
X024236Y009601D02*
X023721Y009601D01*
X016221Y016586D02*
X016221Y017101D01*
X014221Y017101D02*
X014221Y016586D01*
X012221Y016586D02*
X012221Y017101D01*
X012221Y019101D02*
X012221Y019616D01*
X012221Y020343D02*
X012221Y020858D01*
X011221Y020858D02*
X011221Y020343D01*
X009971Y020586D02*
X009971Y021101D01*
X009971Y023101D02*
X009971Y023616D01*
X009221Y024601D02*
X008706Y024601D01*
X011221Y024601D02*
X011736Y024601D01*
X012221Y023858D02*
X012221Y023343D01*
X011221Y023343D02*
X011221Y023858D01*
X013221Y023858D02*
X013221Y023343D01*
X014221Y023343D02*
X014221Y023858D01*
X015221Y023858D02*
X015221Y023343D01*
X016221Y023343D02*
X016221Y023858D01*
X017221Y023858D02*
X017221Y023343D01*
X018221Y023343D02*
X018221Y023858D01*
X017221Y024843D02*
X017221Y025358D01*
X016221Y025358D02*
X016221Y024843D01*
X015221Y024843D02*
X015221Y025358D01*
X014221Y025358D02*
X014221Y024843D01*
X014221Y027843D02*
X014221Y028358D01*
X015221Y028358D02*
X015221Y027843D01*
X016221Y027843D02*
X016221Y028358D01*
X017221Y028358D02*
X017221Y027843D01*
X017221Y020858D02*
X017221Y020343D01*
X018221Y020343D02*
X018221Y020858D01*
X016221Y020858D02*
X016221Y020343D01*
X015221Y020343D02*
X015221Y020858D01*
X014221Y020858D02*
X014221Y020343D01*
X013221Y020343D02*
X013221Y020858D01*
X014221Y019616D02*
X014221Y019101D01*
X016221Y019101D02*
X016221Y019616D01*
X032221Y027086D02*
X032221Y027601D01*
X033721Y027358D02*
X033721Y026843D01*
X034721Y026843D02*
X034721Y027358D01*
X035721Y027358D02*
X035721Y026843D01*
X036721Y026843D02*
X036721Y027358D01*
X037721Y027358D02*
X037721Y026843D01*
X038721Y026843D02*
X038721Y027358D01*
X039721Y027358D02*
X039721Y026843D01*
X040721Y026843D02*
X040721Y027358D01*
X044221Y027601D02*
X044221Y027086D01*
X045721Y026843D02*
X045721Y027358D01*
X046721Y027358D02*
X046721Y026843D01*
X047721Y026843D02*
X047721Y027358D01*
X048721Y027358D02*
X048721Y026843D01*
X049721Y026843D02*
X049721Y027358D01*
X050721Y027358D02*
X050721Y026843D01*
X051721Y026843D02*
X051721Y027358D01*
X053721Y027336D02*
X053721Y027851D01*
X055221Y027851D02*
X055221Y027336D01*
X056721Y027358D02*
X056721Y026843D01*
X057721Y026843D02*
X057721Y027358D01*
X058721Y027358D02*
X058721Y026843D01*
X059721Y026843D02*
X059721Y027358D01*
X059721Y029843D02*
X059721Y030358D01*
X058721Y030358D02*
X058721Y029843D01*
X057721Y029843D02*
X057721Y030358D01*
X056721Y030358D02*
X056721Y029843D01*
X055221Y029851D02*
X055221Y030366D01*
X053721Y030366D02*
X053721Y029851D01*
X051721Y029843D02*
X051721Y030358D01*
X050721Y030358D02*
X050721Y029843D01*
X049721Y029843D02*
X049721Y030358D01*
X048721Y030358D02*
X048721Y029843D01*
X047721Y029843D02*
X047721Y030358D01*
X046721Y030358D02*
X046721Y029843D01*
X045721Y029843D02*
X045721Y030358D01*
X044221Y030116D02*
X044221Y029601D01*
X040721Y029843D02*
X040721Y030358D01*
X039721Y030358D02*
X039721Y029843D01*
X038721Y029843D02*
X038721Y030358D01*
X037721Y030358D02*
X037721Y029843D01*
X036721Y029843D02*
X036721Y030358D01*
X035721Y030358D02*
X035721Y029843D01*
X034721Y029843D02*
X034721Y030358D01*
X033721Y030358D02*
X033721Y029843D01*
X032221Y029601D02*
X032221Y030116D01*
X059964Y022101D02*
X060479Y022101D01*
X060479Y021101D02*
X059964Y021101D01*
X059964Y020101D02*
X060479Y020101D01*
X060479Y019101D02*
X059964Y019101D01*
D11*
X061721Y020101D03*
X062721Y020101D03*
X062721Y025101D03*
X061721Y025101D03*
X055215Y025101D03*
X054428Y025101D03*
X051721Y033101D03*
X051721Y034101D03*
X046721Y034101D03*
X046721Y033101D03*
X027221Y032601D03*
X022221Y032601D03*
X012721Y035601D03*
X008721Y037101D03*
X007721Y037101D03*
X007721Y035601D03*
X006721Y023641D03*
X006721Y022561D03*
X011721Y015101D03*
X011721Y010101D03*
X011221Y005601D03*
X012221Y005601D03*
X015721Y005601D03*
X016721Y005601D03*
X020721Y003601D03*
X021721Y003601D03*
X022721Y003601D03*
X022721Y002601D03*
X021721Y002601D03*
X020721Y002601D03*
X025221Y001101D03*
X030221Y001101D03*
X034721Y001101D03*
X039221Y001101D03*
X043721Y001101D03*
X048221Y001101D03*
X052721Y001101D03*
X057221Y001101D03*
X061721Y001101D03*
X059721Y005601D03*
X058721Y005601D03*
X057221Y006101D03*
X055221Y005601D03*
X054221Y005601D03*
X052721Y006101D03*
X050721Y005601D03*
X049721Y005601D03*
X048221Y006101D03*
X046221Y005601D03*
X045221Y005601D03*
X043721Y006101D03*
X039221Y006101D03*
X034721Y006101D03*
X030221Y006101D03*
X025721Y007351D03*
X024721Y007351D03*
X028721Y009601D03*
X028721Y010601D03*
X030221Y010601D03*
X030221Y009601D03*
X031721Y009601D03*
X031721Y010601D03*
X033221Y010601D03*
X033221Y009601D03*
X034721Y009601D03*
X034721Y010601D03*
X036221Y010601D03*
X036221Y009601D03*
X037721Y009601D03*
X037721Y010601D03*
X037721Y011601D03*
X036221Y011601D03*
X034721Y011601D03*
X033221Y011601D03*
X031721Y011601D03*
X030221Y011601D03*
X028721Y011601D03*
X044221Y009601D03*
X046221Y009601D03*
X048221Y009601D03*
X050221Y009601D03*
X052221Y011601D03*
X050221Y014601D03*
X048221Y014601D03*
X046221Y014601D03*
X044221Y014601D03*
X057221Y011601D03*
X061721Y006101D03*
X012213Y002601D03*
X011213Y002601D03*
D12*
X014721Y002898D02*
X014721Y002304D01*
X017721Y002304D02*
X017721Y002898D01*
X029221Y018304D02*
X029221Y018898D01*
X030221Y018898D02*
X030221Y018304D01*
X031221Y018304D02*
X031221Y018898D01*
X032221Y018898D02*
X032221Y018304D01*
X033221Y018304D02*
X033221Y018898D01*
X034221Y018898D02*
X034221Y018304D01*
X035221Y018304D02*
X035221Y018898D01*
X036221Y018898D02*
X036221Y018304D01*
X037721Y018304D02*
X037721Y018898D01*
X038721Y018898D02*
X038721Y018304D01*
X039721Y018304D02*
X039721Y018898D01*
X040721Y018898D02*
X040721Y018304D01*
X041721Y018304D02*
X041721Y018898D01*
X042721Y018898D02*
X042721Y018304D01*
X043721Y018304D02*
X043721Y018898D01*
X044721Y018898D02*
X044721Y018304D01*
X045721Y018304D02*
X045721Y018898D01*
X046721Y018898D02*
X046721Y018304D01*
X050721Y019304D02*
X050721Y019898D01*
X051721Y019898D02*
X051721Y019304D01*
X052721Y019304D02*
X052721Y019898D01*
X053721Y019898D02*
X053721Y019304D01*
X050221Y025304D02*
X050221Y025898D01*
X041221Y025898D02*
X041221Y025304D01*
X041221Y037304D02*
X041221Y037898D01*
X040221Y037898D02*
X040221Y037304D01*
X039221Y037304D02*
X039221Y037898D01*
X038221Y037898D02*
X038221Y037304D01*
X037221Y037304D02*
X037221Y037898D01*
X036221Y037898D02*
X036221Y037304D01*
X034221Y037304D02*
X034221Y037898D01*
X033221Y037898D02*
X033221Y037304D01*
X032221Y037304D02*
X032221Y037898D01*
X031221Y037898D02*
X031221Y037304D01*
X030221Y037304D02*
X030221Y037898D01*
X029221Y037898D02*
X029221Y037304D01*
X042221Y037304D02*
X042221Y037898D01*
X043221Y037898D02*
X043221Y037304D01*
X062674Y031601D02*
X063268Y031601D01*
X063268Y030601D02*
X062674Y030601D01*
X062674Y029601D02*
X063268Y029601D01*
X063268Y028601D02*
X062674Y028601D01*
X062674Y027601D02*
X063268Y027601D01*
X063268Y026601D02*
X062674Y026601D01*
D13*
X007721Y020941D03*
D14*
X006721Y021481D03*
X007721Y022021D03*
X007721Y023101D03*
X007721Y024181D03*
X006721Y024721D03*
X007721Y025261D03*
X058471Y034601D03*
X059180Y035309D03*
X059889Y034601D03*
D15*
X007221Y028031D03*
X007221Y018171D03*
D16*
X026721Y003601D03*
X029221Y003601D03*
X031221Y003601D03*
X033721Y003601D03*
X035721Y003601D03*
X038221Y003601D03*
X040221Y003601D03*
X042721Y003601D03*
X044721Y003601D03*
X047221Y003601D03*
X049221Y003601D03*
X051721Y003601D03*
X053721Y003601D03*
X056221Y003601D03*
X058221Y003601D03*
X060721Y003601D03*
X060721Y001601D03*
X058221Y001601D03*
X056221Y001601D03*
X053721Y001601D03*
X051721Y001601D03*
X049221Y001601D03*
X047221Y001601D03*
X044721Y001601D03*
X042721Y001601D03*
X040221Y001601D03*
X038221Y001601D03*
X035721Y001601D03*
X033721Y001601D03*
X031221Y001601D03*
X029221Y001601D03*
X026721Y001601D03*
D17*
X008083Y013101D02*
X008083Y014101D01*
D18*
X005721Y014031D02*
X005721Y013171D01*
X006472Y011672D02*
X007332Y011672D01*
D19*
X022934Y034601D03*
X023721Y034601D03*
X024509Y034601D03*
X055221Y034388D03*
X055221Y033601D03*
X055221Y032813D03*
D20*
X055221Y032026D03*
X055221Y035176D03*
X025296Y034601D03*
X022146Y034601D03*
D21*
X008046Y001101D02*
X007396Y001101D01*
X007396Y002101D02*
X008046Y002101D01*
X008046Y003101D02*
X007396Y003101D01*
X007396Y004101D02*
X008046Y004101D01*
X008046Y005101D02*
X007396Y005101D01*
D22*
X058721Y013101D03*
X062721Y013101D03*
D23*
X006981Y032601D02*
X006461Y032601D01*
X006461Y033601D02*
X006981Y033601D01*
X006981Y034601D02*
X006461Y034601D01*
D24*
X006721Y035601D02*
X005221Y035601D01*
X005221Y026101D01*
X009221Y026101D01*
X009221Y024601D01*
X009221Y023601D01*
X009221Y015601D01*
X009721Y015101D01*
X011721Y015101D01*
X011721Y012101D01*
X012221Y011601D01*
X015014Y011601D01*
X015721Y010894D01*
X015721Y008101D01*
X015721Y007751D02*
X015721Y008451D01*
X014721Y008451D02*
X014721Y007751D01*
X013721Y007751D02*
X013721Y008451D01*
X015721Y005601D02*
X015721Y001808D01*
X016428Y001101D01*
X022014Y001101D01*
X022721Y001808D01*
X022721Y002601D01*
X022721Y003601D01*
X020221Y008101D02*
X020221Y012101D01*
X029221Y032851D02*
X029221Y033601D01*
X028221Y034601D01*
X028221Y038101D01*
X006721Y038101D01*
X006721Y035601D01*
X039221Y033851D02*
X039221Y037601D01*
X040221Y037601D02*
X040221Y036101D01*
X042221Y036101D01*
X042221Y037601D01*
X040221Y036101D02*
X040221Y032851D01*
D25*
X044971Y032101D02*
X044971Y027601D01*
X044971Y027101D01*
X045721Y027101D01*
X045721Y022101D01*
X040721Y026601D02*
X040721Y027101D01*
X040721Y026601D02*
X037721Y023601D01*
X031024Y023601D01*
X029721Y024904D01*
X029721Y031101D01*
X029221Y031601D01*
X021721Y031601D01*
X021221Y032101D01*
X019721Y032101D01*
X019221Y031601D01*
X019221Y004601D01*
X021221Y004601D01*
X021721Y004101D01*
X021721Y002601D01*
X019221Y003101D02*
X019221Y004601D01*
X019221Y003101D02*
X018721Y002601D01*
X017721Y002601D01*
X025721Y007351D02*
X026221Y007351D01*
X026221Y007101D01*
X009971Y023101D02*
X009971Y023601D01*
X009221Y023601D01*
X009971Y023601D02*
X011221Y023601D01*
X009221Y026101D02*
X013721Y026101D01*
X014221Y026601D01*
X014221Y028101D01*
X022721Y028601D02*
X022721Y029851D01*
X022721Y033601D02*
X022934Y033813D01*
X022934Y034601D01*
X022971Y034601D01*
X023721Y034601D02*
X023721Y035101D01*
X023221Y035601D01*
X021221Y035601D01*
X020221Y034601D01*
X008221Y034601D01*
X007721Y035101D01*
X007721Y035601D01*
X007721Y037101D01*
X008721Y037101D02*
X012221Y037101D01*
X012721Y036601D01*
X012721Y035601D01*
X020221Y035601D01*
X020221Y036101D01*
X022721Y033601D02*
X006721Y033601D01*
X044221Y027601D02*
X044971Y027601D01*
X045721Y030101D02*
X045721Y031101D01*
X061221Y031101D01*
X061721Y031601D01*
X062971Y031601D01*
X062971Y029601D02*
X061721Y029601D01*
X061221Y029101D01*
X049721Y029101D01*
X049721Y030101D01*
X058721Y027601D02*
X058721Y027101D01*
X058721Y027601D02*
X059221Y028101D01*
X061221Y028101D01*
X061721Y027601D01*
X062971Y027601D01*
X059721Y027101D02*
X059721Y025601D01*
X060221Y025101D01*
X061721Y025101D01*
X062721Y025101D01*
X063221Y025101D01*
X063721Y024601D01*
X063721Y019601D01*
X063221Y019101D01*
X060221Y019101D01*
D26*
X044971Y032101D03*
X040221Y032851D03*
X039221Y033851D03*
X029221Y032851D03*
X024521Y029851D03*
X025471Y025601D03*
X025471Y023601D03*
X020971Y021601D03*
X025471Y018601D03*
X025471Y015601D03*
X020971Y013601D03*
X020221Y012101D03*
X025471Y011601D03*
X020221Y008101D03*
X010721Y001101D03*
D27*
X018221Y005101D03*
X017721Y005601D03*
X032221Y012601D03*
X034221Y014601D03*
X035721Y014101D03*
X037221Y013601D03*
X040221Y011601D03*
X040721Y012101D03*
X038721Y011101D03*
X041721Y020101D03*
X040721Y020601D03*
X041721Y021601D03*
X042721Y021101D03*
X045721Y022101D03*
X039721Y023101D03*
X038221Y022601D03*
X039221Y022101D03*
X028221Y025101D03*
X027721Y024601D03*
X027721Y027101D03*
X026721Y027601D03*
X027221Y028601D03*
X028221Y028101D03*
X020221Y036101D03*
X043221Y035101D03*
X043721Y034601D03*
X057221Y032101D03*
X055971Y026601D03*
D28*
X054851Y026601D01*
X054421Y026091D01*
X054428Y025101D01*
X050221Y025601D02*
X050221Y027601D01*
X049721Y028101D01*
X048221Y028101D01*
X047721Y027601D01*
X047721Y027101D01*
X041721Y030601D02*
X041721Y021601D01*
X041221Y021101D01*
X041221Y020101D01*
X040721Y019601D01*
X040721Y018601D01*
X039721Y018601D02*
X039721Y023101D01*
X038721Y023101D02*
X029721Y023101D01*
X029221Y023601D01*
X029221Y027601D01*
X028721Y028101D01*
X028221Y028101D01*
X027221Y028601D02*
X027221Y012101D01*
X028221Y011101D01*
X030721Y011101D01*
X031221Y010601D01*
X031721Y010601D01*
X032471Y010601D02*
X032471Y009160D01*
X031912Y008601D01*
X028221Y008601D01*
X027721Y009101D01*
X027721Y011101D01*
X026721Y012101D01*
X026721Y027601D01*
X027721Y027101D02*
X028221Y027101D01*
X028721Y026601D01*
X028721Y023101D01*
X029221Y022601D01*
X036721Y022601D01*
X037221Y022101D01*
X037221Y016601D01*
X038721Y015101D01*
X038721Y011101D01*
X039221Y010601D02*
X038721Y010101D01*
X036721Y010101D01*
X036721Y011601D01*
X036221Y011601D01*
X034721Y011601D02*
X034721Y016101D01*
X036221Y017601D01*
X036221Y018601D01*
X035221Y018601D02*
X035221Y021601D01*
X034721Y022101D01*
X028721Y022101D01*
X028221Y022601D01*
X028221Y025101D01*
X027721Y024601D02*
X027721Y022101D01*
X028221Y021601D01*
X033721Y021601D01*
X034221Y021101D01*
X034221Y018601D01*
X033221Y018601D02*
X033221Y011601D01*
X032221Y012601D02*
X032221Y018601D01*
X031221Y018601D02*
X031221Y012601D01*
X031721Y012101D01*
X031721Y011601D01*
X032471Y010601D02*
X033221Y010601D01*
X034221Y010601D02*
X034721Y010601D01*
X034221Y010601D02*
X034221Y014601D01*
X035721Y014101D02*
X035721Y010601D01*
X036221Y010601D01*
X037221Y010601D02*
X037721Y010601D01*
X037221Y010601D02*
X037221Y013601D01*
X039221Y015601D02*
X039221Y010601D01*
X039221Y009601D02*
X037721Y009601D01*
X039221Y009601D02*
X040221Y010601D01*
X050221Y010601D01*
X051221Y011601D01*
X052221Y011601D01*
X052221Y017101D02*
X046221Y017101D01*
X045721Y017601D01*
X045721Y018601D01*
X045721Y020101D01*
X043221Y022601D01*
X043221Y035101D01*
X043721Y034601D02*
X043721Y023058D01*
X046721Y020058D01*
X046721Y018601D01*
X042221Y020601D02*
X042221Y031101D01*
X041721Y031601D01*
X038221Y031601D01*
X037721Y031101D01*
X037721Y030101D01*
X038721Y030101D02*
X038721Y030601D01*
X039221Y031101D01*
X041221Y031101D01*
X041721Y030601D01*
X042721Y031542D02*
X042721Y021101D01*
X042221Y020601D02*
X041721Y020101D01*
X040721Y020601D02*
X040721Y021601D01*
X041221Y022101D01*
X041221Y025601D01*
X041221Y028101D01*
X039721Y029601D01*
X039721Y030101D01*
X042162Y032101D02*
X042721Y031542D01*
X042162Y032101D02*
X037302Y032101D01*
X036721Y031520D01*
X036721Y030101D01*
X038721Y023101D02*
X038721Y018601D01*
X037721Y018601D02*
X037721Y017101D01*
X039221Y015601D01*
X040221Y015601D02*
X038221Y017601D01*
X038221Y022601D01*
X039221Y022101D02*
X039221Y017601D01*
X040721Y016101D01*
X040721Y012101D01*
X040221Y011601D02*
X040221Y015601D01*
X030221Y018601D02*
X030221Y011601D01*
X028721Y011601D02*
X028721Y017101D01*
X029221Y017601D01*
X029221Y018601D01*
X018221Y017101D02*
X016721Y018601D01*
X016721Y022101D01*
X016221Y022601D01*
X016221Y023601D01*
X015221Y023601D02*
X015221Y022601D01*
X015721Y022101D01*
X015721Y018601D01*
X017721Y016601D01*
X017721Y005601D01*
X018221Y005101D02*
X018221Y017101D01*
X011721Y010101D02*
X011721Y007851D01*
X012971Y006601D01*
X012971Y004351D01*
X012213Y003593D01*
X012213Y002601D01*
X052221Y017101D02*
X052721Y017601D01*
X052721Y019601D01*
X052721Y020601D01*
X053221Y021101D01*
X060221Y021101D01*
X062221Y021101D01*
X062721Y020601D01*
X062721Y020101D01*
X057221Y032101D02*
X057221Y035601D01*
X056721Y036101D01*
X052221Y036101D01*
X051721Y035601D01*
X051721Y034101D01*
X051721Y033101D01*
X022221Y032601D02*
X006721Y032601D01*
D29*
X029221Y035101D02*
X029221Y037601D01*
X030221Y037601D02*
X030221Y035601D01*
X030721Y035101D01*
X030721Y025719D01*
X031839Y024601D01*
X036721Y024601D01*
X037721Y025601D01*
X037721Y027101D01*
X038721Y027101D02*
X038721Y025515D01*
X037307Y024101D01*
X031339Y024101D01*
X030221Y025219D01*
X030221Y034101D01*
X029221Y035101D01*
X032221Y035601D02*
X032221Y037601D01*
X031221Y037601D02*
X031221Y026219D01*
X032339Y025101D01*
X036221Y025101D01*
X036721Y025601D01*
X036721Y027101D01*
X035721Y027101D02*
X035721Y025601D01*
X032721Y025601D01*
X032721Y035101D01*
X032221Y035601D01*
X033221Y037601D02*
X033221Y026101D01*
X034721Y026101D01*
X034721Y027101D01*
X033721Y027101D02*
X033721Y028601D01*
X034221Y029101D01*
X034221Y037601D01*
D30*
X025471Y029851D02*
X024721Y029851D01*
X024521Y029851D01*
X022721Y029851D01*
X020971Y029851D01*
X020971Y021601D01*
X020971Y013601D01*
X025471Y011601D02*
X025471Y015601D01*
X025471Y018601D01*
X025471Y023601D01*
X025471Y025601D01*
X025471Y029851D01*
X025471Y011601D02*
X026221Y010601D01*
X026221Y007101D01*
X026221Y006101D01*
X025221Y005101D01*
X025221Y001101D01*
X010721Y001101D02*
X009221Y002601D01*
X009221Y006601D01*
X007221Y008601D01*
X007221Y011711D01*
X006902Y011672D01*
M02*
