G75*
G70*
%OFA0B0*%
%FSLAX24Y24*%
%IPPOS*%
%LPD*%
%AMOC8*
5,1,8,0,0,1.08239X$1,22.5*
%
%ADD10R,0.2250X0.0500*%
%ADD11R,0.0750X0.0750*%
%ADD12C,0.0515*%
%ADD13C,0.0660*%
%ADD14C,0.0594*%
%ADD15R,0.0760X0.0760*%
%ADD16C,0.0760*%
%ADD17C,0.2000*%
%ADD18C,0.0860*%
%ADD19C,0.1000*%
%ADD20C,0.0860*%
%ADD21C,0.0560*%
%ADD22R,0.0768X0.0768*%
%ADD23C,0.0650*%
%ADD24C,0.1000*%
%ADD25C,0.0520*%
%ADD26C,0.0700*%
%ADD27C,0.1500*%
%ADD28C,0.0400*%
%ADD29C,0.0591*%
%ADD30C,0.0450*%
%ADD31C,0.0160*%
D10*
X008846Y003101D03*
D11*
X013096Y007726D03*
D12*
X013721Y006866D02*
X013721Y006351D01*
X013721Y004351D02*
X013721Y003836D01*
X022206Y009601D02*
X022721Y009601D01*
X022721Y010601D02*
X022206Y010601D01*
X022206Y011601D02*
X022721Y011601D01*
X022721Y012601D02*
X022206Y012601D01*
X022206Y013601D02*
X022721Y013601D01*
X022721Y014601D02*
X022206Y014601D01*
X022206Y015601D02*
X022721Y015601D01*
X022721Y016601D02*
X022206Y016601D01*
X022206Y017601D02*
X022721Y017601D01*
X022721Y018601D02*
X022206Y018601D01*
X022206Y019601D02*
X022721Y019601D01*
X022721Y020601D02*
X022206Y020601D01*
X022206Y021601D02*
X022721Y021601D01*
X022721Y022601D02*
X022206Y022601D01*
X022206Y023601D02*
X022721Y023601D01*
X022721Y024601D02*
X022206Y024601D01*
X022206Y025601D02*
X022721Y025601D01*
X022721Y026601D02*
X022206Y026601D01*
X022206Y027601D02*
X022721Y027601D01*
X022721Y028601D02*
X022206Y028601D01*
X023721Y028601D02*
X024236Y028601D01*
X024236Y027601D02*
X023721Y027601D01*
X023721Y026601D02*
X024236Y026601D01*
X024236Y025601D02*
X023721Y025601D01*
X023721Y024601D02*
X024236Y024601D01*
X024236Y023601D02*
X023721Y023601D01*
X023721Y022601D02*
X024236Y022601D01*
X024236Y021601D02*
X023721Y021601D01*
X023721Y020601D02*
X024236Y020601D01*
X024236Y019601D02*
X023721Y019601D01*
X023721Y018601D02*
X024236Y018601D01*
X024236Y017601D02*
X023721Y017601D01*
X023721Y016601D02*
X024236Y016601D01*
X024236Y015601D02*
X023721Y015601D01*
X023721Y014601D02*
X024236Y014601D01*
X024236Y013601D02*
X023721Y013601D01*
X023721Y012601D02*
X024236Y012601D01*
X024236Y011601D02*
X023721Y011601D01*
X023721Y010601D02*
X024236Y010601D01*
X024236Y009601D02*
X023721Y009601D01*
X016221Y016586D02*
X016221Y017101D01*
X014221Y017101D02*
X014221Y016586D01*
X012221Y016586D02*
X012221Y017101D01*
X012221Y019101D02*
X012221Y019616D01*
X012221Y020343D02*
X012221Y020858D01*
X011221Y020858D02*
X011221Y020343D01*
X009971Y020586D02*
X009971Y021101D01*
X009971Y023101D02*
X009971Y023616D01*
X009221Y024601D02*
X008706Y024601D01*
X011221Y024601D02*
X011736Y024601D01*
X012221Y023858D02*
X012221Y023343D01*
X011221Y023343D02*
X011221Y023858D01*
X013221Y023858D02*
X013221Y023343D01*
X014221Y023343D02*
X014221Y023858D01*
X015221Y023858D02*
X015221Y023343D01*
X016221Y023343D02*
X016221Y023858D01*
X017221Y023858D02*
X017221Y023343D01*
X018221Y023343D02*
X018221Y023858D01*
X017221Y024843D02*
X017221Y025358D01*
X016221Y025358D02*
X016221Y024843D01*
X015221Y024843D02*
X015221Y025358D01*
X014221Y025358D02*
X014221Y024843D01*
X014221Y027843D02*
X014221Y028358D01*
X015221Y028358D02*
X015221Y027843D01*
X016221Y027843D02*
X016221Y028358D01*
X017221Y028358D02*
X017221Y027843D01*
X017221Y020858D02*
X017221Y020343D01*
X018221Y020343D02*
X018221Y020858D01*
X016221Y020858D02*
X016221Y020343D01*
X015221Y020343D02*
X015221Y020858D01*
X014221Y020858D02*
X014221Y020343D01*
X013221Y020343D02*
X013221Y020858D01*
X014221Y019616D02*
X014221Y019101D01*
X016221Y019101D02*
X016221Y019616D01*
X032221Y027086D02*
X032221Y027601D01*
X033721Y027358D02*
X033721Y026843D01*
X034721Y026843D02*
X034721Y027358D01*
X035721Y027358D02*
X035721Y026843D01*
X036721Y026843D02*
X036721Y027358D01*
X037721Y027358D02*
X037721Y026843D01*
X038721Y026843D02*
X038721Y027358D01*
X039721Y027358D02*
X039721Y026843D01*
X040721Y026843D02*
X040721Y027358D01*
X044221Y027601D02*
X044221Y027086D01*
X045721Y026843D02*
X045721Y027358D01*
X046721Y027358D02*
X046721Y026843D01*
X047721Y026843D02*
X047721Y027358D01*
X048721Y027358D02*
X048721Y026843D01*
X049721Y026843D02*
X049721Y027358D01*
X050721Y027358D02*
X050721Y026843D01*
X051721Y026843D02*
X051721Y027358D01*
X053721Y027336D02*
X053721Y027851D01*
X055221Y027851D02*
X055221Y027336D01*
X056721Y027358D02*
X056721Y026843D01*
X057721Y026843D02*
X057721Y027358D01*
X058721Y027358D02*
X058721Y026843D01*
X059721Y026843D02*
X059721Y027358D01*
X059721Y029843D02*
X059721Y030358D01*
X058721Y030358D02*
X058721Y029843D01*
X057721Y029843D02*
X057721Y030358D01*
X056721Y030358D02*
X056721Y029843D01*
X055221Y029851D02*
X055221Y030366D01*
X053721Y030366D02*
X053721Y029851D01*
X051721Y029843D02*
X051721Y030358D01*
X050721Y030358D02*
X050721Y029843D01*
X049721Y029843D02*
X049721Y030358D01*
X048721Y030358D02*
X048721Y029843D01*
X047721Y029843D02*
X047721Y030358D01*
X046721Y030358D02*
X046721Y029843D01*
X045721Y029843D02*
X045721Y030358D01*
X044221Y030116D02*
X044221Y029601D01*
X040721Y029843D02*
X040721Y030358D01*
X039721Y030358D02*
X039721Y029843D01*
X038721Y029843D02*
X038721Y030358D01*
X037721Y030358D02*
X037721Y029843D01*
X036721Y029843D02*
X036721Y030358D01*
X035721Y030358D02*
X035721Y029843D01*
X034721Y029843D02*
X034721Y030358D01*
X033721Y030358D02*
X033721Y029843D01*
X032221Y029601D02*
X032221Y030116D01*
X059964Y022101D02*
X060479Y022101D01*
X060479Y021101D02*
X059964Y021101D01*
X059964Y020101D02*
X060479Y020101D01*
X060479Y019101D02*
X059964Y019101D01*
D13*
X061721Y020101D03*
X062721Y020101D03*
X062721Y025101D03*
X061721Y025101D03*
X055215Y025101D03*
X054428Y025101D03*
X051721Y033101D03*
X051721Y034101D03*
X046721Y034101D03*
X046721Y033101D03*
X027221Y032601D03*
X022221Y032601D03*
X012721Y035601D03*
X008721Y037101D03*
X007721Y037101D03*
X007721Y035601D03*
X006721Y023641D03*
X006721Y022561D03*
X011721Y015101D03*
X011721Y010101D03*
X011221Y005601D03*
X012221Y005601D03*
X015721Y005601D03*
X016721Y005601D03*
X020721Y003601D03*
X021721Y003601D03*
X022721Y003601D03*
X022721Y002601D03*
X021721Y002601D03*
X020721Y002601D03*
X025221Y001101D03*
X030221Y001101D03*
X034721Y001101D03*
X039221Y001101D03*
X043721Y001101D03*
X048221Y001101D03*
X052721Y001101D03*
X057221Y001101D03*
X061721Y001101D03*
X059721Y005601D03*
X058721Y005601D03*
X057221Y006101D03*
X055221Y005601D03*
X054221Y005601D03*
X052721Y006101D03*
X050721Y005601D03*
X049721Y005601D03*
X048221Y006101D03*
X046221Y005601D03*
X045221Y005601D03*
X043721Y006101D03*
X039221Y006101D03*
X034721Y006101D03*
X030221Y006101D03*
X025721Y007351D03*
X024721Y007351D03*
X028721Y009601D03*
X028721Y010601D03*
X030221Y010601D03*
X030221Y009601D03*
X031721Y009601D03*
X031721Y010601D03*
X033221Y010601D03*
X033221Y009601D03*
X034721Y009601D03*
X034721Y010601D03*
X036221Y010601D03*
X036221Y009601D03*
X037721Y009601D03*
X037721Y010601D03*
X037721Y011601D03*
X036221Y011601D03*
X034721Y011601D03*
X033221Y011601D03*
X031721Y011601D03*
X030221Y011601D03*
X028721Y011601D03*
X044221Y009601D03*
X046221Y009601D03*
X048221Y009601D03*
X050221Y009601D03*
X052221Y011601D03*
X050221Y014601D03*
X048221Y014601D03*
X046221Y014601D03*
X044221Y014601D03*
X057221Y011601D03*
X061721Y006101D03*
X012213Y002601D03*
X011213Y002601D03*
D14*
X014721Y002898D02*
X014721Y002304D01*
X017721Y002304D02*
X017721Y002898D01*
X029221Y018304D02*
X029221Y018898D01*
X030221Y018898D02*
X030221Y018304D01*
X031221Y018304D02*
X031221Y018898D01*
X032221Y018898D02*
X032221Y018304D01*
X033221Y018304D02*
X033221Y018898D01*
X034221Y018898D02*
X034221Y018304D01*
X035221Y018304D02*
X035221Y018898D01*
X036221Y018898D02*
X036221Y018304D01*
X037721Y018304D02*
X037721Y018898D01*
X038721Y018898D02*
X038721Y018304D01*
X039721Y018304D02*
X039721Y018898D01*
X040721Y018898D02*
X040721Y018304D01*
X041721Y018304D02*
X041721Y018898D01*
X042721Y018898D02*
X042721Y018304D01*
X043721Y018304D02*
X043721Y018898D01*
X044721Y018898D02*
X044721Y018304D01*
X045721Y018304D02*
X045721Y018898D01*
X046721Y018898D02*
X046721Y018304D01*
X050721Y019304D02*
X050721Y019898D01*
X051721Y019898D02*
X051721Y019304D01*
X052721Y019304D02*
X052721Y019898D01*
X053721Y019898D02*
X053721Y019304D01*
X050221Y025304D02*
X050221Y025898D01*
X041221Y025898D02*
X041221Y025304D01*
X041221Y037304D02*
X041221Y037898D01*
X040221Y037898D02*
X040221Y037304D01*
X039221Y037304D02*
X039221Y037898D01*
X038221Y037898D02*
X038221Y037304D01*
X037221Y037304D02*
X037221Y037898D01*
X036221Y037898D02*
X036221Y037304D01*
X034221Y037304D02*
X034221Y037898D01*
X033221Y037898D02*
X033221Y037304D01*
X032221Y037304D02*
X032221Y037898D01*
X031221Y037898D02*
X031221Y037304D01*
X030221Y037304D02*
X030221Y037898D01*
X029221Y037898D02*
X029221Y037304D01*
X042221Y037304D02*
X042221Y037898D01*
X043221Y037898D02*
X043221Y037304D01*
X062674Y031601D02*
X063268Y031601D01*
X063268Y030601D02*
X062674Y030601D01*
X062674Y029601D02*
X063268Y029601D01*
X063268Y028601D02*
X062674Y028601D01*
X062674Y027601D02*
X063268Y027601D01*
X063268Y026601D02*
X062674Y026601D01*
D15*
X007721Y020941D03*
D16*
X006721Y021481D03*
X007721Y022021D03*
X007721Y023101D03*
X007721Y024181D03*
X006721Y024721D03*
X007721Y025261D03*
X058471Y034601D03*
X059180Y035309D03*
X059889Y034601D03*
D17*
X007221Y028031D03*
X007221Y018171D03*
D18*
X026721Y003601D03*
X029221Y003601D03*
X031221Y003601D03*
X033721Y003601D03*
X035721Y003601D03*
X038221Y003601D03*
X040221Y003601D03*
X042721Y003601D03*
X044721Y003601D03*
X047221Y003601D03*
X049221Y003601D03*
X051721Y003601D03*
X053721Y003601D03*
X056221Y003601D03*
X058221Y003601D03*
X060721Y003601D03*
X060721Y001601D03*
X058221Y001601D03*
X056221Y001601D03*
X053721Y001601D03*
X051721Y001601D03*
X049221Y001601D03*
X047221Y001601D03*
X044721Y001601D03*
X042721Y001601D03*
X040221Y001601D03*
X038221Y001601D03*
X035721Y001601D03*
X033721Y001601D03*
X031221Y001601D03*
X029221Y001601D03*
X026721Y001601D03*
D19*
X008083Y013101D02*
X008083Y014101D01*
D20*
X005721Y014031D02*
X005721Y013171D01*
X006472Y011672D02*
X007332Y011672D01*
D21*
X022934Y034601D03*
X023721Y034601D03*
X024509Y034601D03*
X055221Y034388D03*
X055221Y033601D03*
X055221Y032813D03*
D22*
X055221Y032026D03*
X055221Y035176D03*
X025296Y034601D03*
X022146Y034601D03*
D23*
X008046Y005101D02*
X007396Y005101D01*
X007396Y004101D02*
X008046Y004101D01*
X008046Y003101D02*
X007396Y003101D01*
X007396Y002101D02*
X008046Y002101D01*
X008046Y001101D02*
X007396Y001101D01*
D24*
X058721Y013101D03*
X062721Y013101D03*
D25*
X006981Y032601D02*
X006461Y032601D01*
X006461Y033601D02*
X006981Y033601D01*
X006981Y034601D02*
X006461Y034601D01*
D26*
X006221Y002601D02*
X006221Y002101D01*
X007721Y002101D01*
X007721Y003101D02*
X009221Y003601D01*
X012221Y004351D02*
X013721Y004351D01*
X013721Y001101D01*
X013721Y004351D02*
X014721Y004351D01*
X014721Y008101D01*
X014721Y007751D02*
X014721Y008451D01*
X015721Y008451D02*
X015721Y007751D01*
X015721Y008101D02*
X015721Y005601D01*
X016721Y005601D02*
X016721Y004351D01*
X014721Y004351D01*
X012221Y004351D02*
X012221Y005601D01*
X011221Y005601D02*
X011221Y008101D01*
X013221Y008101D02*
X013221Y008601D01*
X013221Y008101D02*
X013721Y008101D01*
X013721Y006351D01*
X013721Y007751D02*
X013721Y008451D01*
X020221Y008101D02*
X020221Y007101D01*
X020221Y012101D02*
X020221Y027601D01*
X021221Y028601D01*
X021221Y034101D01*
X020221Y035101D01*
X020221Y036101D01*
X025570Y036101D01*
X026471Y035199D01*
X026471Y034641D01*
X027262Y033851D01*
X039221Y033851D01*
X040221Y032851D02*
X044471Y032851D01*
X044971Y032101D01*
X046721Y032101D01*
X046721Y033101D01*
X046721Y032101D02*
X048721Y032101D01*
X050721Y032101D01*
X051912Y032101D01*
X052471Y031542D01*
X052471Y029660D01*
X053030Y029101D01*
X055221Y029101D01*
X056221Y029101D01*
X056721Y029601D01*
X056721Y030101D01*
X055221Y027851D02*
X053721Y027851D01*
X052721Y027851D01*
X051721Y028351D01*
X051721Y028851D01*
X047721Y028851D01*
X044221Y028851D01*
X040721Y028851D01*
X040221Y028351D01*
X035721Y028351D01*
X032325Y028351D01*
X033721Y030101D02*
X034721Y030101D01*
X034721Y032851D01*
X029221Y032851D01*
X028221Y036101D02*
X037221Y036101D01*
X037221Y037601D01*
X038221Y037601D02*
X038221Y036101D01*
X037221Y036101D01*
X038221Y036101D02*
X044721Y036101D01*
X045721Y037101D01*
X061221Y037101D01*
X064721Y034601D01*
X064721Y030601D01*
X062971Y030601D01*
X064721Y030601D02*
X064721Y028601D01*
X062971Y028601D01*
X064721Y028601D02*
X064721Y026601D01*
X062971Y026601D01*
X064721Y026601D02*
X064721Y022101D01*
X060221Y022101D01*
X057839Y022101D01*
X056721Y023219D01*
X056721Y025101D01*
X055215Y025101D01*
X055221Y027851D01*
X056721Y027101D02*
X056721Y025101D01*
X050721Y030101D02*
X050721Y032101D01*
X048721Y032101D02*
X048721Y030101D01*
X046721Y030101D02*
X046721Y032101D01*
X040221Y032851D02*
X034721Y032851D01*
X028221Y036101D02*
X028221Y038101D01*
X006721Y038101D01*
X006721Y035601D01*
X005221Y035601D01*
X005221Y034601D01*
X005221Y026101D01*
X005221Y017101D01*
X005740Y016082D01*
X005740Y015851D01*
X007721Y025261D02*
X007721Y026101D01*
X005221Y026101D01*
X043721Y018601D02*
X043721Y017351D01*
X053721Y017351D01*
X062721Y017351D01*
X062721Y013101D01*
X062721Y017351D02*
X064721Y019351D01*
X064721Y022101D01*
X053721Y019601D02*
X053721Y017351D01*
D27*
X025221Y001101D02*
X020721Y001101D01*
X014721Y001101D01*
X013721Y001101D01*
X011221Y001101D01*
X010721Y001101D01*
X009221Y003601D02*
X009221Y006520D01*
X010802Y008101D01*
X011221Y008101D01*
X012721Y008101D01*
X013221Y008601D01*
X013221Y009894D01*
X013928Y010601D01*
X016221Y010601D01*
X017221Y009601D01*
X017221Y007808D01*
X017928Y007101D01*
X020221Y007101D01*
X024221Y007101D01*
X024221Y010101D01*
X008721Y009851D02*
X008721Y013601D01*
X008221Y013601D01*
X006902Y011672D02*
X005741Y012892D01*
X005721Y013601D01*
X005740Y013601D02*
X005721Y013582D01*
X005740Y013601D02*
X005740Y015851D01*
X008388Y009713D02*
X008721Y009851D01*
X008388Y009713D02*
X006221Y007546D01*
X006221Y002601D01*
D28*
X011213Y002601D02*
X011221Y002601D01*
X011221Y001101D01*
X014721Y001101D02*
X014721Y002601D01*
X020721Y002601D02*
X020721Y001101D01*
X020721Y002601D02*
X020721Y003601D01*
X022721Y002601D02*
X025721Y002601D01*
X026721Y001601D01*
X026721Y002101D01*
X029221Y002101D01*
X029221Y001601D01*
X029221Y002101D02*
X031221Y002101D01*
X031221Y001601D01*
X031221Y002101D02*
X033721Y002101D01*
X033721Y001601D01*
X033721Y002101D02*
X035721Y002101D01*
X035721Y001601D01*
X035721Y002101D02*
X038221Y002101D01*
X038221Y001601D01*
X038221Y002101D02*
X040221Y002101D01*
X040221Y001601D01*
X040221Y002101D02*
X042721Y002101D01*
X042721Y001601D01*
X042721Y002101D02*
X044721Y002101D01*
X044721Y001601D01*
X044721Y002101D02*
X047221Y002101D01*
X047221Y001601D01*
X047221Y002101D02*
X049221Y002101D01*
X049221Y001601D01*
X049221Y002101D02*
X051721Y002101D01*
X051721Y001601D01*
X051721Y002101D02*
X053721Y002101D01*
X053721Y001601D01*
X053721Y002101D02*
X056221Y002101D01*
X056221Y001601D01*
X056221Y002101D02*
X058221Y002101D01*
X058221Y001601D01*
X058221Y002101D02*
X060721Y002101D01*
X060721Y001601D01*
X061721Y002101D02*
X061221Y002601D01*
X057221Y002601D01*
X052721Y002601D01*
X048221Y002601D01*
X044221Y002601D01*
X043721Y003101D01*
X043721Y004601D01*
X044721Y005601D01*
X045221Y005601D01*
X043721Y006101D02*
X042721Y005101D01*
X042721Y003601D01*
X040221Y003601D01*
X039221Y004601D02*
X038221Y003601D01*
X035721Y003601D01*
X034721Y004601D02*
X033721Y003601D01*
X031221Y003601D01*
X030221Y004601D02*
X030221Y006101D01*
X030221Y004601D02*
X029221Y003601D01*
X026721Y003601D01*
X025221Y001101D02*
X025221Y000601D01*
X030221Y000601D01*
X034721Y000601D01*
X034721Y001101D01*
X034721Y000601D02*
X039221Y000601D01*
X039221Y001101D01*
X039221Y000601D02*
X043721Y000601D01*
X043721Y001101D01*
X043721Y000601D02*
X048221Y000601D01*
X048221Y001101D01*
X048221Y000601D02*
X052721Y000601D01*
X052721Y001101D01*
X052721Y000601D02*
X057221Y000601D01*
X057221Y001101D01*
X057221Y000601D02*
X061721Y000601D01*
X061721Y001101D01*
X061721Y002101D01*
X060721Y003601D02*
X060721Y005101D01*
X061721Y006101D01*
X058721Y005601D02*
X058221Y005601D01*
X057221Y004601D01*
X057221Y002601D01*
X056221Y003601D02*
X056221Y005101D01*
X057221Y006101D01*
X054221Y005601D02*
X053721Y005601D01*
X052721Y004601D01*
X052721Y002601D01*
X051721Y003601D02*
X051721Y005101D01*
X052721Y006101D01*
X049721Y005601D02*
X049221Y005601D01*
X048221Y004601D01*
X048221Y002601D01*
X047221Y003601D02*
X047221Y005101D01*
X048221Y006101D01*
X047221Y003601D02*
X044721Y003601D01*
X049221Y003601D02*
X051721Y003601D01*
X053721Y003601D02*
X056221Y003601D01*
X058221Y003601D02*
X060721Y003601D01*
X039221Y004601D02*
X039221Y006101D01*
X034721Y006101D02*
X034721Y004601D01*
X030221Y001101D02*
X030221Y000601D01*
X023721Y009601D02*
X023721Y010601D01*
X023721Y011601D02*
X025471Y011601D01*
X022721Y013601D02*
X020971Y013601D01*
X023721Y015601D02*
X025471Y015601D01*
X025471Y018601D02*
X023721Y018601D01*
X022721Y021601D02*
X020971Y021601D01*
X018221Y021601D02*
X018221Y020601D01*
X018221Y018219D01*
X017103Y017101D01*
X016221Y017101D01*
X016221Y013101D01*
X015721Y012601D01*
X010721Y012601D01*
X010221Y013101D01*
X010221Y015292D01*
X009662Y015851D01*
X005740Y015851D01*
X005721Y013601D02*
X005740Y013601D01*
X011221Y018101D02*
X012221Y017101D01*
X011221Y018101D02*
X011221Y020601D01*
X012221Y020601D02*
X012221Y021101D01*
X011721Y021601D01*
X010471Y021601D01*
X009971Y021101D01*
X012221Y019101D02*
X012721Y019101D01*
X013221Y019601D01*
X013221Y020601D01*
X014221Y020601D02*
X014221Y019101D01*
X015221Y018101D02*
X014221Y017101D01*
X015221Y018101D02*
X015221Y020601D01*
X016221Y020601D02*
X016221Y019101D01*
X018221Y021601D02*
X017221Y022601D01*
X017221Y023601D01*
X017221Y025101D01*
X012221Y025601D02*
X012221Y024601D01*
X011221Y024601D01*
X012221Y024601D02*
X012221Y023601D01*
X012221Y025601D02*
X011721Y026101D01*
X007721Y026101D01*
X006721Y034601D02*
X005221Y034601D01*
X023721Y025601D02*
X025471Y025601D01*
X025471Y023601D02*
X023721Y023601D01*
X032221Y027601D02*
X032221Y028247D01*
X032325Y028351D01*
X032221Y029601D02*
X033721Y029601D01*
X033721Y030101D01*
X035721Y030101D02*
X035721Y028351D01*
X040721Y028851D02*
X040721Y030101D01*
X044221Y029601D02*
X044221Y028851D01*
X047721Y028851D02*
X047721Y030101D01*
X051721Y030101D02*
X051721Y028851D01*
X055221Y029101D02*
X055221Y029851D01*
X055221Y022101D02*
X050721Y022101D01*
X050721Y019601D01*
X050721Y022101D02*
X045721Y022101D01*
X055221Y022101D02*
X055721Y021601D01*
X055721Y019601D01*
X056221Y019101D01*
X060221Y019101D01*
X024521Y029851D02*
X024509Y029863D01*
X024509Y034601D01*
D29*
X029221Y032851D03*
X024521Y029851D03*
X025471Y025601D03*
X025471Y023601D03*
X020971Y021601D03*
X025471Y018601D03*
X025471Y015601D03*
X020971Y013601D03*
X020221Y012101D03*
X025471Y011601D03*
X020221Y008101D03*
X010721Y001101D03*
X044971Y032101D03*
X040221Y032851D03*
X039221Y033851D03*
D30*
X043221Y035101D03*
X043721Y034601D03*
X057221Y032101D03*
X055971Y026601D03*
X045721Y022101D03*
X042721Y021101D03*
X041721Y021601D03*
X040721Y020601D03*
X041721Y020101D03*
X039221Y022101D03*
X038221Y022601D03*
X039721Y023101D03*
X028221Y025101D03*
X027721Y024601D03*
X027721Y027101D03*
X026721Y027601D03*
X027221Y028601D03*
X028221Y028101D03*
X020221Y036101D03*
X034221Y014601D03*
X035721Y014101D03*
X037221Y013601D03*
X040221Y011601D03*
X040721Y012101D03*
X038721Y011101D03*
X032221Y012601D03*
X018221Y005101D03*
X017721Y005601D03*
D31*
X028221Y005601D01*
X028721Y006101D01*
X028721Y009601D01*
X029221Y010101D02*
X027721Y010101D01*
X027221Y010601D01*
X027221Y012101D01*
X026721Y012601D01*
X023721Y012601D01*
X023221Y013101D02*
X023221Y014101D01*
X031721Y014101D01*
X032721Y013101D01*
X038221Y013101D01*
X038721Y012601D01*
X050221Y012601D01*
X050721Y012101D01*
X050721Y010601D01*
X051221Y010101D01*
X061221Y010101D01*
X061721Y009601D01*
X061721Y006101D01*
X059721Y005601D02*
X059721Y009144D01*
X059264Y009601D01*
X050221Y009601D01*
X049721Y009101D02*
X056721Y009101D01*
X057221Y008601D01*
X057221Y006101D01*
X055221Y005601D02*
X055221Y008101D01*
X054721Y008601D01*
X048721Y008601D01*
X048221Y009101D01*
X048221Y009601D01*
X049221Y009601D02*
X049221Y011601D01*
X048721Y012101D01*
X040721Y012101D01*
X040221Y011601D02*
X046721Y011601D01*
X047221Y011101D01*
X047221Y008601D01*
X047721Y008101D01*
X052221Y008101D01*
X052721Y007601D01*
X052721Y006101D01*
X050721Y006601D02*
X050721Y005601D01*
X050721Y006601D02*
X050221Y007101D01*
X047721Y007101D01*
X046221Y008601D01*
X046221Y009601D01*
X045221Y010601D02*
X044721Y011101D01*
X038721Y011101D01*
X037721Y011601D02*
X037721Y012101D01*
X037221Y012601D01*
X032221Y012601D01*
X033221Y013601D02*
X037221Y013601D01*
X035721Y014101D02*
X033721Y014101D01*
X032721Y015101D01*
X023221Y015101D01*
X022721Y014601D01*
X023721Y014601D02*
X032221Y014601D01*
X033221Y013601D01*
X034221Y014601D02*
X033221Y015601D01*
X026721Y015601D01*
X026221Y016101D01*
X023221Y016101D01*
X022721Y015601D01*
X022721Y016601D02*
X023221Y017101D01*
X027221Y017101D01*
X027721Y016601D01*
X041221Y016601D01*
X041721Y016101D01*
X041721Y014101D01*
X042221Y013601D01*
X047721Y013601D01*
X048221Y014101D01*
X048221Y014601D01*
X046221Y014601D02*
X046221Y015601D01*
X045221Y016601D01*
X043221Y016601D01*
X042221Y017601D01*
X041221Y017601D01*
X041221Y019601D01*
X023721Y019601D01*
X023221Y020101D02*
X041721Y020101D01*
X041721Y018601D01*
X042721Y018601D02*
X042721Y021101D01*
X042721Y022101D01*
X043221Y022601D01*
X048221Y022601D01*
X048721Y023101D01*
X048721Y027101D01*
X047721Y027101D02*
X047721Y024101D01*
X047221Y023601D01*
X041221Y023601D01*
X040721Y023101D01*
X040721Y022101D01*
X040221Y021601D01*
X023721Y021601D01*
X023221Y021101D02*
X042721Y021101D01*
X041721Y021601D02*
X041721Y022601D01*
X042221Y023101D01*
X047721Y023101D01*
X048221Y023601D01*
X048221Y027851D01*
X048471Y028101D01*
X049471Y028101D01*
X049721Y027851D01*
X049721Y027101D01*
X053721Y029851D02*
X053721Y033802D01*
X054290Y034391D01*
X055221Y034388D01*
X055221Y033601D02*
X055721Y033601D01*
X056721Y034601D01*
X058471Y034601D01*
X059180Y035309D01*
X059889Y035433D02*
X059889Y034601D01*
X058721Y034351D02*
X058471Y034601D01*
X058721Y034351D02*
X058721Y030101D01*
X058721Y029101D01*
X057721Y028101D01*
X057721Y027101D01*
X057221Y028101D02*
X056530Y028101D01*
X055971Y027542D01*
X055971Y026601D01*
X057221Y028101D02*
X058221Y029101D01*
X058221Y032283D01*
X057654Y032822D01*
X055221Y032813D01*
X057221Y032101D02*
X057721Y031601D01*
X057721Y030101D01*
X059889Y035433D02*
X059884Y035805D01*
X059596Y036091D01*
X047221Y036101D01*
X046721Y035601D01*
X046721Y034101D01*
X043721Y034601D02*
X027521Y034601D01*
X027121Y035001D01*
X027121Y036379D01*
X026650Y036851D01*
X019721Y036851D01*
X019221Y036351D01*
X019221Y027410D01*
X018662Y026851D01*
X015721Y026851D01*
X015221Y027351D01*
X015221Y028101D01*
X016221Y028101D02*
X016221Y027660D01*
X016680Y027201D01*
X018221Y027201D01*
X018721Y027601D01*
X018721Y036851D01*
X019221Y037351D01*
X027141Y037351D01*
X027571Y036921D01*
X027571Y035623D01*
X028093Y035101D01*
X043221Y035101D01*
X028221Y032101D02*
X028221Y028101D01*
X021721Y028101D01*
X021221Y027601D01*
X021221Y027101D01*
X021721Y026601D01*
X022721Y026601D01*
X023221Y027101D02*
X022721Y027601D01*
X023221Y027101D02*
X027721Y027101D01*
X028221Y026601D02*
X028721Y026101D01*
X028721Y023601D01*
X029221Y023101D01*
X039721Y023101D01*
X038221Y022601D02*
X028971Y022601D01*
X027471Y024101D01*
X023221Y024101D01*
X022721Y024601D01*
X023221Y025101D02*
X028221Y025101D01*
X027721Y024601D02*
X023721Y024601D01*
X023221Y025101D02*
X022721Y025601D01*
X023721Y026601D02*
X028221Y026601D01*
X026721Y027601D02*
X023721Y027601D01*
X023721Y028601D02*
X027221Y028601D01*
X028221Y032101D02*
X027721Y032601D01*
X027221Y032601D01*
X019221Y025792D02*
X018662Y026351D01*
X015780Y026351D01*
X015221Y025792D01*
X015221Y025101D01*
X016221Y025101D02*
X016221Y025542D01*
X016680Y026001D01*
X018162Y026001D01*
X018721Y025542D01*
X018721Y011101D01*
X019221Y010601D01*
X022721Y010601D01*
X023721Y010601D02*
X024221Y010101D01*
X022721Y011601D02*
X021721Y011601D01*
X021221Y011101D01*
X019721Y011101D01*
X019221Y011601D01*
X019221Y025792D01*
X022721Y023601D02*
X023221Y023101D01*
X026971Y023101D01*
X027971Y022101D01*
X039221Y022101D01*
X040721Y020601D02*
X023721Y020601D01*
X023221Y020101D02*
X022721Y019601D01*
X023221Y019101D02*
X027221Y019101D01*
X028721Y017601D01*
X040721Y017601D01*
X040721Y018601D01*
X041721Y017101D02*
X042221Y016601D01*
X042721Y016101D01*
X043721Y016101D01*
X044221Y015601D01*
X044221Y014601D01*
X041721Y013101D02*
X049721Y013101D01*
X050221Y013601D01*
X050221Y014601D01*
X051221Y018601D02*
X046721Y018601D01*
X051221Y018601D02*
X051721Y019101D01*
X051721Y019601D01*
X051721Y021101D01*
X052221Y021601D01*
X054221Y021601D01*
X054721Y021101D01*
X054721Y019101D01*
X055221Y018601D01*
X061721Y018601D01*
X061721Y020101D01*
X060221Y020101D01*
X058721Y013101D02*
X058721Y012101D01*
X058221Y011601D01*
X057221Y011601D01*
X049721Y009101D02*
X049221Y009601D01*
X047221Y006601D02*
X045221Y008601D01*
X045221Y010601D01*
X044221Y009601D02*
X044221Y007601D01*
X044721Y007101D01*
X045721Y007101D01*
X046221Y006601D01*
X046221Y005601D01*
X047221Y006601D02*
X048221Y006601D01*
X048221Y006101D01*
X040221Y006292D02*
X040221Y003601D01*
X040221Y006292D02*
X039662Y006851D01*
X036780Y006851D01*
X036221Y007410D01*
X036221Y009601D01*
X034721Y009601D02*
X034721Y008601D01*
X035721Y007601D01*
X035721Y006601D01*
X036221Y006101D01*
X039221Y006101D01*
X034721Y006101D02*
X033721Y006101D01*
X033221Y006601D01*
X033221Y009601D01*
X031721Y009601D02*
X031721Y006601D01*
X031221Y006101D01*
X030221Y006101D01*
X029721Y005601D02*
X029721Y008601D01*
X030221Y009101D01*
X030221Y009601D01*
X029221Y010101D02*
X029721Y010601D01*
X030221Y010601D01*
X028721Y010601D02*
X028221Y010601D01*
X027721Y011101D01*
X027721Y013101D01*
X027221Y013601D01*
X023721Y013601D01*
X023221Y013101D02*
X022721Y012601D01*
X026721Y016601D02*
X027221Y016101D01*
X040721Y016101D01*
X041221Y015601D01*
X041221Y013601D01*
X041721Y013101D01*
X041721Y017101D02*
X028221Y017101D01*
X027721Y017601D01*
X023721Y017601D01*
X022721Y018601D02*
X023221Y019101D01*
X022721Y020601D02*
X023221Y021101D01*
X023721Y016601D02*
X026721Y016601D01*
X014221Y022601D02*
X013721Y022101D01*
X013721Y016410D01*
X013162Y015851D01*
X011280Y015851D01*
X010721Y016410D01*
X010721Y017601D01*
X009471Y018851D01*
X008721Y019601D01*
X008221Y020101D01*
X006221Y020101D01*
X005971Y020351D01*
X005971Y022851D01*
X006221Y023101D01*
X007721Y023101D01*
X007721Y022021D02*
X012641Y022021D01*
X013221Y022601D01*
X013221Y023601D01*
X014221Y023601D02*
X014221Y022601D01*
X024221Y007101D02*
X024721Y007351D01*
X029221Y005101D02*
X029721Y005601D01*
X029221Y005101D02*
X018221Y005101D01*
M02*
