%
M48
M72
T01C0.0236
T02C0.0315
T03C0.0320
T04C0.0394
T05C0.0433
T06C0.0512
T07C0.1260
%
T01
X17721Y5601
X18221Y5101
X32221Y12601
X34221Y14601
X35721Y14101
X37221Y13601
X40221Y11601
X40721Y12101
X38721Y11101
X41721Y20101
X40721Y20601
X41721Y21601
X42721Y21101
X45721Y22101
X39721Y23101
X38221Y22601
X39221Y22101
X28221Y25101
X27721Y24601
X27721Y27101
X26721Y27601
X27221Y28601
X28221Y28101
X20221Y36101
X43221Y35101
X43721Y34601
X57221Y32101
X55971Y26601
T02
X56721Y27101
X57721Y27101
X58721Y27101
X59721Y27101
X61721Y25101
X62721Y25101
X60221Y22101
X60221Y21101
X60221Y20101
X60221Y19101
X61721Y20101
X62721Y20101
X55215Y25101
X54428Y25101
X51721Y27101
X50721Y27101
X49721Y27101
X48721Y27101
X47721Y27101
X46721Y27101
X45721Y27101
X44221Y27601
X44221Y29601
X45721Y30101
X46721Y30101
X47721Y30101
X48721Y30101
X49721Y30101
X50721Y30101
X51721Y30101
X53721Y29851
X55221Y29851
X56721Y30101
X57721Y30101
X58721Y30101
X59721Y30101
X55221Y27851
X53721Y27851
X55221Y32813
X55221Y33601
X55221Y34388
X58471Y34601
X59180Y35309
X59889Y34601
X51721Y34101
X51721Y33101
X46721Y33101
X46721Y34101
X40721Y30101
X39721Y30101
X38721Y30101
X37721Y30101
X36721Y30101
X35721Y30101
X34721Y30101
X33721Y30101
X32221Y29601
X32221Y27601
X33721Y27101
X34721Y27101
X35721Y27101
X36721Y27101
X37721Y27101
X38721Y27101
X39721Y27101
X40721Y27101
X27221Y32601
X24509Y34601
X23721Y34601
X22934Y34601
X22221Y32601
X22721Y28601
X22721Y27601
X23721Y27601
X23721Y28601
X23721Y26601
X22721Y26601
X22721Y25601
X23721Y25601
X23721Y24601
X22721Y24601
X22721Y23601
X23721Y23601
X23721Y22601
X22721Y22601
X22721Y21601
X23721Y21601
X23721Y20601
X22721Y20601
X22721Y19601
X23721Y19601
X23721Y18601
X22721Y18601
X22721Y17601
X23721Y17601
X23721Y16601
X22721Y16601
X22721Y15601
X23721Y15601
X23721Y14601
X22721Y14601
X22721Y13601
X23721Y13601
X23721Y12601
X22721Y12601
X22721Y11601
X23721Y11601
X23721Y10601
X22721Y10601
X22721Y9601
X23721Y9601
X24721Y7351
X25721Y7351
X28721Y9601
X28721Y10601
X30221Y10601
X30221Y9601
X31721Y9601
X31721Y10601
X33221Y10601
X33221Y9601
X34721Y9601
X34721Y10601
X36221Y10601
X36221Y9601
X37721Y9601
X37721Y10601
X37721Y11601
X36221Y11601
X34721Y11601
X33221Y11601
X31721Y11601
X30221Y11601
X28721Y11601
X30221Y6101
X34721Y6101
X39221Y6101
X43721Y6101
X45221Y5601
X46221Y5601
X48221Y6101
X49721Y5601
X50721Y5601
X52721Y6101
X54221Y5601
X55221Y5601
X57221Y6101
X58721Y5601
X59721Y5601
X61721Y6101
X61721Y1101
X57221Y1101
X52721Y1101
X48221Y1101
X43721Y1101
X39221Y1101
X34721Y1101
X30221Y1101
X16721Y5601
X15721Y5601
X13721Y6351
X12221Y5601
X11221Y5601
X13721Y4351
X12213Y2601
X11213Y2601
X11721Y10101
X6902Y11672
X5721Y13601
X8083Y13601
X11721Y15101
X12221Y17101
X14221Y17101
X16221Y17101
X16221Y19101
X16221Y20601
X15221Y20601
X14221Y20601
X13221Y20601
X12221Y20601
X11221Y20601
X9971Y21101
X7721Y20941
X6721Y21481
X7721Y22021
X6721Y22561
X7721Y23101
X6721Y23641
X7721Y24181
X6721Y24721
X7721Y25261
X9221Y24601
X9971Y23101
X11221Y23601
X12221Y23601
X13221Y23601
X14221Y23601
X15221Y23601
X16221Y23601
X17221Y23601
X18221Y23601
X17221Y25101
X16221Y25101
X15221Y25101
X14221Y25101
X11221Y24601
X14221Y28101
X15221Y28101
X16221Y28101
X17221Y28101
X17221Y20601
X18221Y20601
X14221Y19101
X12221Y19101
X12721Y35601
X8721Y37101
X7721Y37101
X7721Y35601
X44221Y14601
X46221Y14601
X48221Y14601
X50221Y14601
X52221Y11601
X50221Y9601
X48221Y9601
X46221Y9601
X44221Y9601
X57221Y11601
T03
X6721Y32601
X6721Y33601
X6721Y34601
T04
X7721Y31101
X20221Y31101
X24521Y29851
X29221Y32851
X29221Y37601
X30221Y37601
X31221Y37601
X32221Y37601
X33221Y37601
X34221Y37601
X36221Y37601
X37221Y37601
X38221Y37601
X39221Y37601
X40221Y37601
X41221Y37601
X42221Y37601
X43221Y37601
X39221Y33851
X40221Y32851
X44971Y32101
X41221Y25601
X50221Y25601
X50721Y19601
X51721Y19601
X52721Y19601
X53721Y19601
X46721Y18601
X45721Y18601
X44721Y18601
X43721Y18601
X42721Y18601
X41721Y18601
X40721Y18601
X39721Y18601
X38721Y18601
X37721Y18601
X36221Y18601
X35221Y18601
X34221Y18601
X33221Y18601
X32221Y18601
X31221Y18601
X30221Y18601
X29221Y18601
X25471Y18601
X25471Y15601
X20971Y13601
X20221Y12101
X25471Y11601
X20221Y8101
X15721Y8101
X14721Y8101
X13721Y8101
X20721Y3601
X21721Y3601
X22721Y3601
X22721Y2601
X21721Y2601
X20721Y2601
X17721Y2601
X14721Y2601
X10721Y1101
X25221Y1101
X26721Y1601
X29221Y1601
X31221Y1601
X33721Y1601
X35721Y1601
X38221Y1601
X40221Y1601
X42721Y1601
X44721Y1601
X47221Y1601
X49221Y1601
X51721Y1601
X53721Y1601
X56221Y1601
X58221Y1601
X60721Y1601
X60721Y3601
X58221Y3601
X56221Y3601
X53721Y3601
X51721Y3601
X49221Y3601
X47221Y3601
X44721Y3601
X42721Y3601
X40221Y3601
X38221Y3601
X35721Y3601
X33721Y3601
X31221Y3601
X29221Y3601
X26721Y3601
X20971Y21601
X25471Y23601
X25471Y25601
X58721Y13101
X62721Y13101
X62971Y26601
X62971Y27601
X62971Y28601
X62971Y29601
X62971Y30601
X62971Y31601
T05
X7721Y5101
X7721Y4101
X7721Y3101
X7721Y2101
X7721Y1101
T06
X55221Y32026
X55221Y35176
X25296Y34601
X22146Y34601
T07
X4690Y2069
X3721Y7601
X14721Y15101
X7221Y18171
X7221Y28031
X3721Y30601
X4690Y37502
X42091Y7975
X63745Y2069
X63745Y37502
M30
